<?xml version="1.0" standalone="no"?>
<!DOCTYPE svg PUBLIC "-//W3C//DTD SVG 20010904//EN"
 "http://www.w3.org/TR/2001/REC-SVG-20010904/DTD/svg10.dtd">
<svg version="1.0" xmlns="http://www.w3.org/2000/svg"
 width="200.000000pt" height="200.000000pt" viewBox="0 0 200.000000 200.000000"
 preserveAspectRatio="xMidYMid meet">
<metadata>
Created by potrace 1.14, written by Peter Selinger 2001-2017
</metadata>
<g transform="translate(0.000000,200.000000) scale(0.100000,-0.100000)"
fill="#000000" stroke="none">
<path d="M915 1894 c-27 -7 -77 -14 -110 -14 -48 0 -70 -6 -110 -29 -28 -16
-57 -36 -64 -45 -7 -9 -27 -16 -43 -16 -21 0 -41 -11 -64 -34 -20 -20 -37 -29
-42 -24 -14 14 -31 -37 -42 -122 -5 -41 -14 -106 -21 -145 -7 -42 -8 -92 -4
-125 4 -30 9 -89 10 -130 3 -77 23 -170 37 -170 5 0 8 -5 8 -11 0 -5 -4 -7
-10 -4 -6 4 -7 -5 -4 -23 5 -25 2 -31 -15 -37 -27 -8 -27 -39 -1 -92 11 -22
22 -60 26 -84 4 -24 21 -71 39 -104 18 -33 35 -72 39 -87 7 -32 15 -30 -199
-52 -77 -8 -186 -21 -243 -28 l-102 -12 0 -193 c0 -106 4 -193 9 -193 5 0 24
6 42 14 59 25 160 39 289 41 115 2 133 5 213 35 48 19 89 31 92 28 7 -6 27
-119 30 -163 4 -76 4 -75 30 -75 24 0 26 2 19 38 -4 20 -13 46 -21 58 -21 32
-33 152 -16 165 7 7 13 27 13 46 0 30 2 33 15 20 8 -9 20 -17 25 -19 8 -2 8
-11 1 -31 -16 -43 -13 -177 5 -230 14 -42 19 -47 46 -47 l29 0 -7 70 c-6 60
-4 73 11 90 13 15 14 20 5 20 -11 0 -11 3 -3 11 9 9 24 8 62 -5 84 -27 165
-18 126 14 -8 7 -15 9 -15 6 0 -4 -14 2 -31 14 -19 14 -28 28 -24 37 3 9 1 21
-5 28 -5 7 -12 35 -15 64 l-5 51 30 0 c18 0 29 -4 25 -10 -9 -15 19 -12 41 5
18 14 18 14 -7 15 -15 0 -29 7 -33 15 -3 8 -16 16 -28 16 -17 1 -18 2 -5 6 9
2 17 13 17 23 0 10 9 20 21 23 27 7 15 27 -15 27 -13 0 -29 7 -36 15 -10 12
-10 15 3 15 10 0 14 6 11 13 -2 7 2 26 10 42 8 16 13 32 10 37 -5 7 -52 30
-86 42 -37 12 -18 26 27 19 41 -5 45 -4 54 19 9 25 8 74 -5 186 -6 53 -4 63
11 68 22 9 41 -12 79 -83 42 -78 58 -85 182 -80 144 7 226 47 211 105 -4 14
-5 13 -6 -3 -4 -52 -64 -83 -179 -92 -109 -8 -156 7 -182 57 -24 48 -43 126
-35 151 11 33 106 59 231 64 63 3 118 5 122 6 4 0 -2 4 -13 9 -44 19 -194 11
-293 -16 -111 -30 -160 -28 -226 11 -23 14 -52 25 -62 25 -11 0 -24 4 -29 9
-6 5 -18 11 -27 13 -16 3 -17 5 -3 32 8 15 15 33 15 40 0 6 9 29 19 51 20 39
35 80 30 80 -1 0 14 17 33 38 22 23 41 35 50 32 9 -4 34 4 57 15 45 24 79 24
186 -3 88 -22 93 -24 184 -106 63 -58 91 -91 112 -136 16 -33 29 -68 29 -77 0
-11 8 -18 20 -18 22 0 28 -38 10 -56 -6 -6 -13 -27 -15 -48 -5 -34 -4 -36 10
-22 25 24 53 96 61 156 7 48 9 241 4 309 -3 33 -39 112 -40 86 0 -38 -21 1
-23 43 -1 25 -6 42 -13 42 -7 0 -15 7 -18 16 -4 9 -2 13 5 8 18 -11 -24 49
-51 73 -14 12 -29 22 -35 23 -5 0 -4 -4 4 -9 8 -5 9 -11 3 -15 -6 -3 -14 -1
-18 5 -3 6 -20 17 -38 25 l-31 13 30 1 30 0 -32 20 c-18 10 -40 31 -49 45 -9
15 -48 42 -85 61 -60 30 -77 34 -141 33 -40 0 -95 -7 -123 -15z m260 -114 c3
-5 -1 -10 -10 -10 -9 0 -13 5 -10 10 3 6 8 10 10 10 2 0 7 -4 10 -10z m90 -8
c-3 -3 -11 0 -18 7 -9 10 -8 11 6 5 10 -3 15 -9 12 -12z m146 -93 c10 -19 9
-20 -10 -9 -12 6 -21 18 -21 26 0 19 16 10 31 -17z m-181 -1 c0 -11 -28 -10
-35 1 -3 6 4 9 15 8 11 -1 20 -5 20 -9z m93 -11 c-11 -17 -10 -31 1 -39 6 -4
7 -10 4 -14 -10 -10 -33 18 -33 41 0 22 14 37 27 29 5 -3 5 -11 1 -17z m27
-147 c11 -7 7 -10 -17 -10 -18 0 -33 5 -33 10 0 13 30 13 50 0z m11 -49 c1 -9
1 -20 0 -25 -1 -5 5 -6 12 -3 11 4 13 0 10 -14 -3 -10 -8 -19 -12 -19 -9 1
-46 30 -38 30 4 0 3 10 -4 22 -10 18 -9 20 6 14 15 -5 16 -4 5 9 -11 13 -10
14 4 9 9 -3 17 -14 17 -23z m-351 -447 c0 -14 -4 -23 -10 -19 -5 3 -10 15 -10
26 0 10 5 19 10 19 6 0 10 -12 10 -26z m-469 -32 c-7 -13 -6 -23 1 -30 8 -8 8
-12 1 -12 -16 0 5 -102 26 -123 9 -9 32 -22 51 -27 25 -7 31 -7 22 2 -15 15
10 64 37 71 20 5 37 -7 78 -56 l21 -25 -30 -6 c-89 -18 -181 1 -202 42 -28 56
-37 142 -16 167 17 21 23 19 11 -3z m247 -272 c25 -40 24 -95 -3 -134 -28 -42
-32 -68 -11 -85 10 -8 12 -21 7 -39 -11 -40 -35 -33 -45 13 -13 62 -25 87 -38
79 -14 -9 -3 123 14 161 14 31 57 34 76 5z"/>
<path d="M1480 1581 c0 -5 5 -13 10 -16 6 -3 10 -2 10 4 0 5 -4 13 -10 16 -5
3 -10 2 -10 -4z"/>
<path d="M1416 1080 c5 -8 14 -44 20 -80 l12 -65 1 61 c1 51 -3 64 -21 80 -13
12 -18 13 -12 4z"/>
<path d="M1208 1073 c6 -2 18 -2 25 0 6 3 1 5 -13 5 -14 0 -19 -2 -12 -5z"/>
<path d="M1151 1050 c-50 -12 -68 -47 -30 -57 21 -6 21 -7 4 -20 -17 -12 -16
-13 12 -13 18 0 34 -4 37 -9 11 -18 72 3 86 30 6 10 18 19 28 19 15 0 15 2 2
10 -8 5 -26 10 -39 10 -16 0 -21 4 -18 14 5 12 -24 28 -43 25 -3 -1 -20 -5
-39 -9z m39 -71 c0 -5 -4 -9 -10 -9 -5 0 -10 7 -10 16 0 8 5 12 10 9 6 -3 10
-10 10 -16z"/>
<path d="M1315 990 c3 -5 8 -10 11 -10 2 0 4 5 4 10 0 6 -5 10 -11 10 -5 0 -7
-4 -4 -10z"/>
<path d="M1480 827 c0 -8 7 -20 15 -27 14 -11 13 -14 -2 -25 -15 -11 -15 -13
1 -22 15 -8 15 -12 1 -47 -9 -21 -15 -45 -13 -54 2 -10 12 11 22 46 15 48 17
71 10 99 -9 36 -34 58 -34 30z"/>
<path d="M1415 368 c-2 -7 -18 -53 -36 -103 -17 -50 -33 -112 -34 -138 -2 -27
-2 -47 0 -45 2 2 13 44 24 93 10 50 25 104 31 120 18 45 29 85 24 85 -3 0 -6
-6 -9 -12z"/>
</g>
</svg>
